<svg width="48" height="48" viewBox="0 0 48 48" fill="none" xmlns="http://www.w3.org/2000/svg">
<path d="M22 40C18.4881 40.0106 15.1005 38.701 12.5091 36.3308C9.91758 33.9607 8.31155 30.7031 8.00949 27.2042C7.70743 23.7053 8.7314 20.2207 10.8783 17.4415C13.0252 14.6622 16.1383 12.7914 19.6 12.2C31 10 34 8.96 38 4C40 8 42 12.36 42 20C42 31 32.44 40 22 40Z" stroke="#009966" stroke-width="4" stroke-linecap="round" stroke-linejoin="round"/>
<path d="M4 42C4 36 7.7 31.28 14.16 30C19 29.04 24 26 26 24" stroke="#009966" stroke-width="4" stroke-linecap="round" stroke-linejoin="round"/>
</svg>
