<svg width="48" height="48" viewBox="0 0 48 48" fill="none" xmlns="http://www.w3.org/2000/svg">
<path d="M20.3728 48C19.3204 48 18.3595 47.6904 17.4901 47.0712C16.6206 46.452 16.0232 45.6216 15.6978 44.58L14.3013 39.96C14.0585 39.16 13.6845 38.3504 13.1793 37.5312C12.6742 36.712 12.0161 35.8616 11.2049 34.98C9.82872 33.5 8.78686 31.82 8.07934 29.94C7.37182 28.06 7.01724 26.08 7.01562 24C7.01562 21.96 7.3702 20 8.07934 18.12C8.78848 16.24 9.83034 14.54 11.2049 13.02C12.0144 12.1 12.6726 11.24 13.1793 10.44C13.6861 9.64 14.0601 8.84 14.3013 8.04L15.6978 3.42C16.0216 2.38 16.619 1.5504 17.4901 0.9312C18.3611 0.312 19.322 0.0016 20.3728 0H27.6585C28.7109 0 29.6726 0.3104 30.5436 0.9312C31.4147 1.552 32.0113 2.3816 32.3335 3.42L33.7299 8.04C33.9728 8.84 34.3476 9.6504 34.8543 10.4712C35.3611 11.292 36.0184 12.1416 36.8263 13.02C38.2025 14.5 39.2452 16.18 39.9543 18.06C40.6635 19.94 41.0172 21.92 41.0156 24C41.0156 26.04 40.6619 28 39.9543 29.88C39.2468 31.76 38.2041 33.46 36.8263 34.98C36.0168 35.9 35.3595 36.76 34.8543 37.56C34.3492 38.36 33.9744 39.16 33.7299 39.96L32.3335 44.58C32.0097 45.62 31.413 46.4504 30.5436 47.0712C29.6742 47.692 28.7125 48.0016 27.6585 48H20.3728ZM24.0156 36C27.3751 36 30.2392 34.8296 32.6079 32.4888C34.9766 30.148 36.1601 27.3184 36.1585 24C36.1569 20.6816 34.9725 17.852 32.6055 15.5112C30.2384 13.1704 27.3751 12 24.0156 12C20.6561 12 17.7928 13.1704 15.4258 15.5112C13.0587 17.852 11.8744 20.6816 11.8728 24C11.8711 27.3184 13.0555 30.1488 15.4258 32.4912C17.7961 34.8336 20.6593 36.0032 24.0156 36ZM19.4013 7.8C20.2109 7.6 20.9904 7.44 21.7401 7.32C22.4897 7.2 23.2482 7.14 24.0156 7.14C24.7831 7.14 25.5424 7.2 26.2936 7.32C27.0449 7.44 27.8236 7.6 28.6299 7.8L27.6585 4.8H20.3728L19.4013 7.8ZM20.3728 43.2H27.6585L28.6299 40.2C27.8204 40.4 27.0416 40.5504 26.2936 40.6512C25.5456 40.752 24.7863 40.8016 24.0156 40.8C23.245 40.7984 22.4864 40.7488 21.7401 40.6512C20.9937 40.5536 20.2141 40.4032 19.4013 40.2L20.3728 43.2Z" fill="#E17100"/>
</svg>
